<svg xmlns="http://www.w3.org/2000/svg" xmlns:xlink="http://www.w3.org/1999/xlink" viewBox="0 0 73 73" version="1.1" x="0px" y="0px"><title>recycle0</title><desc>Created with Sketch.</desc><g stroke="none" stroke-width="1" fill="none" fill-rule="evenodd"><g fill="#000000"><path d="M13.2485954,60.3479823 C25.5512897,72.6348641 45.4850456,72.6299869 57.7816817,60.3333508 L55.6603614,58.2120305 C44.5352982,69.3370936 26.5010372,69.3419706 15.3699163,58.2266615 L16.4486449,57.1479328 C17.6192809,55.9772969 17.2635057,54.7025149 15.6543904,54.300236 L10.167804,52.9285894 C8.55206919,52.5246557 7.5803544,53.5046449 7.98263323,55.1137602 L9.35427983,60.6003466 C9.75821354,62.2160815 11.0315159,62.5650618 12.2019766,61.3946012 L13.2485951,60.3479827 L13.2485954,60.3479823 Z M65.9480257,46.1615745 C70.4170789,29.3733679 60.4478965,12.1309614 43.660618,7.63282368 L42.8841609,10.5306012 C58.0710408,14.5999134 67.0904749,30.1973097 63.0502439,45.3851162 L61.5993115,44.99634 C60.000193,44.5678575 59.074087,45.5133589 59.530261,47.108033 L61.0856734,52.5453795 C61.5437239,54.1466138 62.8782768,54.4981489 64.0706722,53.3452075 L68.1363721,49.4140336 C69.3336726,48.2563493 68.9992473,46.9791469 67.4003683,46.5507285 L65.9480257,46.1615745 L65.9480257,46.1615745 Z M27.2719331,7.65520534 C10.5179823,12.1924618 0.58591335,29.4358185 5.08115457,46.2122871 L7.97893205,45.43583 C3.91251651,30.2597606 12.8948408,14.6614156 28.0483934,10.5529945 L28.4326532,11.9870716 C28.8611357,13.58619 30.1430168,13.9154707 31.2959582,12.7230754 L35.2271322,8.65737547 C36.3848165,7.46007491 36.0219784,6.12855063 34.4273042,5.67237665 L28.9899577,4.11696426 C27.3887234,3.65891369 26.4498464,4.58713574 26.8782647,6.18601475 L27.2719331,7.65520534 L27.2719331,7.65520534 Z"></path></g></g></svg>