<?xml version="1.0" standalone="no"?>
<!DOCTYPE svg PUBLIC "-//W3C//DTD SVG 20010904//EN"
 "http://www.w3.org/TR/2001/REC-SVG-20010904/DTD/svg10.dtd">
<svg version="1.0" xmlns="http://www.w3.org/2000/svg"
 width="16.000000pt" height="16.000000pt" viewBox="0 0 16.000000 16.000000"
 preserveAspectRatio="xMidYMid meet">
<metadata>
Created by potrace 1.11, written by Peter Selinger 2001-2013
</metadata>
<g transform="translate(0.000000,16.000000) scale(0.002286,-0.002286)"
fill="#000000" stroke="none">
<path d="M3354 6953 c-83 -47 -158 -90 -234 -131 -25 -14 -75 -42 -112 -63
-36 -22 -71 -39 -77 -39 -6 0 -11 -4 -11 -10 0 -5 -4 -10 -10 -10 -5 0 -51
-24 -102 -53 -92 -53 -216 -123 -333 -187 -33 -18 -77 -44 -97 -57 -21 -12
-39 -23 -41 -23 -2 0 -208 -115 -458 -256 -250 -141 -479 -270 -509 -286 -30
-17 -89 -50 -130 -73 -41 -23 -127 -72 -190 -107 -63 -36 -169 -96 -235 -133
-174 -99 -178 -101 -252 -141 -113 -62 -168 -96 -175 -107 -4 -6 -7 -778 -7
-1716 0 -1544 2 -1708 16 -1723 9 -10 19 -18 23 -18 6 0 182 -97 425 -235 86
-48 188 -106 230 -129 46 -26 95 -53 250 -141 61 -35 133 -75 160 -90 28 -15
102 -57 165 -93 311 -176 662 -373 725 -407 39 -21 75 -41 80 -45 6 -5 35 -21
65 -38 47 -25 130 -72 480 -270 270 -152 431 -242 436 -242 4 0 143 77 384
213 19 11 91 51 160 90 69 39 143 81 165 93 22 13 58 33 80 45 22 12 105 59
185 104 80 45 170 96 200 113 30 16 84 46 118 66 35 20 66 36 68 36 3 0 17 8
32 19 15 10 128 75 252 144 124 69 243 135 265 148 22 12 61 34 88 49 26 15
44 30 40 35 -5 4 -3 5 3 2 6 -4 143 68 305 159 162 92 317 178 344 193 28 14
52 29 55 32 3 3 10 8 16 10 5 2 74 40 152 84 l142 80 0 1720 0 1720 -48 25
c-26 13 -63 34 -82 45 -19 12 -60 35 -90 52 -30 16 -109 60 -175 98 -136 77
-118 67 -405 227 -118 66 -244 137 -280 158 -36 21 -87 50 -115 65 -27 16
-208 117 -402 226 -194 109 -374 210 -400 224 -26 14 -55 30 -63 35 -37 23
-925 522 -966 543 -30 15 -32 15 -110 -30z m90 -2239 c3 -8 2 -12 -4 -9 -6 3
-10 10 -10 16 0 14 7 11 14 -7z m-3 -2307 c-10 -9 -11 -8 -5 6 3 10 9 15 12
12 3 -3 0 -11 -7 -18z"/>
</g>
</svg>
